<?xml version="1.0" encoding="UTF-8"?>
<svg xmlns="http://www.w3.org/2000/svg" version="1.1" viewBox="0 0 612 792">
  <defs>
    <style>
      .cls-1 {
        fill: #fff;
      }

      .cls-2 {
        fill: #020202;
      }
    </style>
  </defs>
  <!-- Generator: Adobe Illustrator 28.7.1, SVG Export Plug-In . SVG Version: 1.2.0 Build 142)  -->
  <g>
    <g id="Layer_1">
      <g>
        <path class="cls-2" d="M305.9,328.1c71.8,0,143.7,0,215.5,0,5.3,0,7.6-2.4,7.6-7.7,0-11.4,0-22.8,0-34.2,0-6.2-2.5-10.5-7.9-13.6-16-9-32-18.2-48-27.4-53.4-30.5-106.8-61-160.2-91.6-4.6-2.6-9.3-2.7-13.9,0-1.1.7-2.3,1.3-3.4,1.9-68.4,39.1-136.7,78.2-205.1,117.2-5.1,2.9-7.6,7.1-7.6,12.9,0,11.5,0,23.1,0,34.6,0,5.4,2.3,7.7,7.8,7.7,71.7,0,143.4,0,215.1,0ZM306,653c71.7,0,143.4,0,215.1,0,5.6,0,7.9-2.3,7.9-7.9,0-11.8,0-23.6,0-35.5,0-8.8-5.2-14.1-13.9-14.1-139.4,0-278.8,0-418.2,0-8.6,0-13.9,5.3-13.9,13.9,0,11.7,0,23.4,0,35.1,0,6.3,2.1,8.5,8.4,8.5,71.6,0,143.1,0,214.7,0ZM465.3,538v-2.4c0-49.1,0-98.2,0-147.2,0-.5-.1-1,0-1.4.3-.6.6-1.3,1.2-1.5,3.6-1.3,5.1-3.2,5.2-7,0-3.4,0-6.9,0-10.3,0-6-2.2-8.2-8.2-8.2-20,0-40,0-60,0-.9,0-1.8,0-2.7.1-3.3.5-5.5,2.8-5.6,6.1,0,4.4,0,8.8,0,13.2,0,2.2,1,4.1,3.1,5,1.8.8,1.9,1.9,1.9,3.5,0,42.7,0,85.4,0,128.1,0,6.9,0,13.9,0,20.8,0,1.2-.3,1.8-1.4,2.3-2.4,1.1-3.6,3.1-3.6,5.8,0,4.1,0,8.1,0,12.2,0,4.1,2.6,6.8,6.7,6.8,21,0,42.1,0,63.1,0,4.1,0,6.6-2.7,6.7-6.8,0-3.4,0-6.7,0-10.1,0-5.8-.8-7-6.4-9ZM305.8,563.9c10.4,0,20.9,0,31.3,0,4.5,0,7.1-2.6,7.2-7,0-4,0-8,0-12,0-2.7-1.2-5-3.8-5.8-1.9-.6-1.9-1.6-1.9-3.2,0-49.4,0-98.7,0-148.1,0-.4-.1-.9,0-1.2.3-.5.6-1.2,1.1-1.4,3.3-1.2,4.7-3.6,4.6-7,0-3.4,0-6.9,0-10.3,0-5.5-2.4-8-7.9-8-20.2,0-40.4,0-60.6,0-.7,0-1.4,0-2.1,0-3.6.4-5.9,2.8-6,6.5-.1,4.2,0,8.4,0,12.6,0,2.6,1.2,4.8,3.7,5.7,1.9.6,2.1,1.7,2.1,3.3,0,49.2,0,98.4,0,147.6,0,.5.1,1,0,1.4-.3.6-.6,1.3-1.2,1.5-3.1,1.2-4.5,3.4-4.5,6.7,0,3.6,0,7.1,0,10.7,0,5.4,2.4,7.8,7.8,7.8,10.1,0,20.2,0,30.3,0ZM178.6,563.9c10.4,0,20.8,0,31.1,0,4.3,0,7-2.4,7.1-6.3,0-4.3,0-8.7,0-13,0-2.8-1.5-5-4.2-5.7-1.9-.5-2.1-1.5-2.1-3.2,0-49.2,0-98.3,0-147.5,0-.4-.1-.9,0-1.2.3-.6.7-1.3,1.2-1.5,3.7-1.3,5.1-3.2,5.1-7,0-3.4,0-6.9,0-10.3,0-5.9-2.2-8.2-8.2-8.2-20.1,0-40.1,0-60.2,0-.8,0-1.7,0-2.5.1-3.3.5-5.5,2.9-5.5,6.2,0,4.3,0,8.7,0,13,0,2.8,1.4,5.1,4.1,5.8,2.1.5,2.2,1.6,2.2,3.3,0,48.1,0,96.2,0,144.4,0,1.4.1,2.8,0,4.1,0,.6-.7,1.4-1.2,1.6-3.5,1.2-5,3.2-5.1,6.9,0,3.6,0,7.3,0,10.9,0,5.3,2.4,7.7,7.7,7.7,10.2,0,20.3,0,30.5,0Z"/>
        <path d="M305.9,328.1c-71.7,0-143.4,0-215.1,0-5.5,0-7.8-2.3-7.8-7.7,0-11.5,0-23.1,0-34.6,0-5.8,2.5-10,7.6-12.9,68.4-39,136.8-78.1,205.1-117.2,1.1-.6,2.3-1.3,3.4-1.9,4.6-2.7,9.3-2.6,13.9,0,53.4,30.5,106.8,61,160.2,91.6,16,9.1,31.9,18.3,48,27.4,5.4,3.1,8,7.4,7.9,13.6-.1,11.4,0,22.8,0,34.2,0,5.3-2.3,7.7-7.6,7.7-71.8,0-143.7,0-215.5,0ZM355.7,256.8c0-27.5-22.4-49.7-49.8-49.7-27.4,0-49.6,22.4-49.6,49.8,0,27.3,22.5,49.6,49.9,49.6,27.3,0,49.6-22.5,49.5-49.7Z"/>
        <path d="M306,653c-71.6,0-143.1,0-214.7,0-6.2,0-8.4-2.2-8.4-8.5,0-11.7,0-23.4,0-35.1,0-8.6,5.3-13.9,13.9-13.9,139.4,0,278.8,0,418.2,0,8.7,0,13.9,5.3,13.9,14.1,0,11.8,0,23.6,0,35.5,0,5.5-2.3,7.9-7.9,7.9-71.7,0-143.4,0-215.1,0Z"/>
        <path d="M465.3,538c5.5,2,6.3,3.2,6.4,9,0,3.4,0,6.7,0,10.1,0,4.1-2.6,6.8-6.7,6.8-21,0-42.1,0-63.1,0-4.1,0-6.7-2.7-6.7-6.8,0-4.1,0-8.1,0-12.2,0-2.6,1.1-4.7,3.6-5.8,1.2-.5,1.4-1.2,1.4-2.3,0-6.9,0-13.9,0-20.8,0-42.7,0-85.4,0-128.1,0-1.6-.1-2.8-1.9-3.5-2-.9-3-2.8-3.1-5,0-4.4-.1-8.8,0-13.2,0-3.3,2.3-5.7,5.6-6.1.9-.1,1.8-.1,2.7-.1,20,0,40,0,60,0,6,0,8.2,2.3,8.2,8.2,0,3.4,0,6.9,0,10.3,0,3.8-1.5,5.7-5.2,7-.5.2-.9.9-1.2,1.5-.2.4,0,.9,0,1.4,0,49.1,0,98.2,0,147.2v2.4Z"/>
        <path d="M305.8,563.9c-10.1,0-20.2,0-30.3,0-5.4,0-7.8-2.4-7.8-7.8,0-3.6,0-7.1,0-10.7,0-3.2,1.4-5.5,4.5-6.7.5-.2.9-1,1.2-1.5.2-.4,0-.9,0-1.4,0-49.2,0-98.4,0-147.6,0-1.7-.2-2.7-2.1-3.3-2.5-.9-3.6-3.1-3.7-5.7,0-4.2,0-8.4,0-12.6,0-3.6,2.4-6,6-6.5.7,0,1.4,0,2.1,0,20.2,0,40.4,0,60.6,0,5.5,0,7.9,2.4,7.9,8,0,3.4,0,6.9,0,10.3,0,3.4-1.3,5.8-4.6,7-.5.2-.8.9-1.1,1.4-.2.3,0,.8,0,1.2,0,49.4,0,98.7,0,148.1,0,1.6,0,2.6,1.9,3.2,2.6.9,3.7,3.2,3.8,5.8,0,4,0,8,0,12,0,4.4-2.7,7-7.2,7-10.4,0-20.9,0-31.3,0Z"/>
        <path d="M178.6,563.9c-10.2,0-20.3,0-30.5,0-5.3,0-7.7-2.4-7.7-7.7,0-3.6,0-7.3,0-10.9,0-3.7,1.6-5.7,5.1-6.9.6-.2,1.2-1,1.2-1.6.2-1.3,0-2.7,0-4.1,0-48.1,0-96.2,0-144.4,0-1.7-.2-2.8-2.2-3.3-2.7-.7-4.1-3-4.1-5.8,0-4.3,0-8.7,0-13,0-3.3,2.3-5.7,5.5-6.2.8-.1,1.6-.1,2.5-.1,20.1,0,40.1,0,60.2,0,6,0,8.2,2.2,8.2,8.2,0,3.4,0,6.9,0,10.3,0,3.8-1.5,5.7-5.1,7-.5.2-.9,1-1.2,1.5-.2.3,0,.8,0,1.2,0,49.2,0,98.3,0,147.5,0,1.7.2,2.7,2.1,3.2,2.7.7,4.1,3,4.2,5.7.1,4.3.1,8.7,0,13,0,3.9-2.9,6.3-7.1,6.3-10.4,0-20.8,0-31.1,0Z"/>
        <path class="cls-1" d="M355.7,256.8c0,27.2-22.2,49.7-49.5,49.7-27.4,0-49.9-22.2-49.9-49.6,0-27.5,22.2-49.8,49.6-49.8,27.4,0,49.7,22.2,49.8,49.7ZM301.1,230.9c-4.2.7-7.8,1.9-10.9,4.6-7.6,6.5-6.1,18.6,3,22.7,2.8,1.3,5.8,2,8.8,2.9,3.4,1,7,1.7,10.2,3.1,3.2,1.3,3.2,5.2.2,7-4.5,2.7-11.6,1.3-14.9-2.7-.7-.8-2-1.4-3.1-1.5-2.6-.2-5.2,0-7.8,0-2.3,0-2.8.6-2.4,2.9.9,5.2,4.2,8.6,8.8,10.6,2.5,1.1,5.2,1.7,8.1,2.6,0,1.3,0,2.8,0,4.3,0,1.5.7,2.3,2.3,2.3,1.7,0,3.4,0,5.2,0,1.5,0,2.3-.8,2.3-2.3,0-1.5,0-3,0-4.5,1-.2,1.9-.2,2.6-.5,3.1-1.3,6.4-2.2,9.1-4.1,7.5-5,8.4-19.4-3-23.5-3.5-1.3-7.1-2-10.7-3-2.6-.7-5.2-1.3-7.6-2.4-2.9-1.3-3.1-5.2-.6-6.9,2.7-1.9,9.9-1.8,12,2.3.4.9,1.9,1.6,2.9,1.7,2.4.2,4.9,0,7.4,0,3.4,0,4.1-.9,2.9-4.1-1.9-5.1-5.7-8.1-10.6-10-1.4-.5-3.4-.5-4.1-1.5-.7-1-.3-2.9-.3-4.4,0-1.7-.8-2.4-2.4-2.4-1.7,0-3.4,0-5.2,0-1.4,0-2.2.7-2.2,2.2,0,1.5,0,3,0,4.7Z"/>
        <path d="M301.1,230.9c0-1.7,0-3.2,0-4.7,0-1.4.7-2.2,2.2-2.2,1.7,0,3.4,0,5.2,0,1.6,0,2.4.7,2.4,2.4,0,1.5-.4,3.4.3,4.4.7,1,2.7,1,4.1,1.5,4.9,1.8,8.7,4.9,10.6,10,1.2,3.2.5,4.1-2.9,4.1-2.5,0-5,.2-7.4,0-1-.1-2.5-.8-2.9-1.7-2.1-4.1-9.3-4.2-12-2.3-2.6,1.8-2.4,5.6.6,6.9,2.4,1.1,5.1,1.7,7.6,2.4,3.6,1,7.2,1.8,10.7,3,11.4,4.1,10.5,18.5,3,23.5-2.7,1.8-6.1,2.8-9.1,4.1-.7.3-1.6.3-2.6.5,0,1.6,0,3,0,4.5,0,1.5-.7,2.3-2.3,2.3-1.7,0-3.4,0-5.2,0-1.5,0-2.3-.7-2.3-2.3,0-1.5,0-3,0-4.3-2.9-.9-5.6-1.5-8.1-2.6-4.6-2.1-7.9-5.4-8.8-10.6-.4-2.3.1-2.9,2.4-2.9,2.6,0,5.2-.2,7.8,0,1.1,0,2.4.7,3.1,1.5,3.3,4.1,10.4,5.5,14.9,2.7,3-1.8,3-5.7-.2-7-3.3-1.4-6.8-2-10.2-3.1-2.9-.9-6-1.7-8.8-2.9-9.1-4.2-10.6-16.2-3-22.7,3.1-2.6,6.8-3.9,10.9-4.6Z"/>
      </g>
    </g>
  </g>
</svg>